<?xml version="1.0" encoding="UTF-8"?>
<!-- Generator: visioncortex VTracer 0.6.12 -->
<svg xmlns="http://www.w3.org/2000/svg" viewBox="0 0 2142 288">

<path d="M0 0 C308.88 0 617.76 0 936 0 C935.67 95.04 935.34 190.08 935 288 C626.45 288 317.9 288 0 288 C0 265.23 0 242.46 0 219 C4 216 4 216 7.12 215.12 C10 214 10 214 11.38 212 C12.43 206.95 12.13 201.88 11.9 196.75 C11.93 196.17 11.97 195.59 12 195 C12.49 194.69 12.99 194.38 13.5 194.06 C13.99 193.71 14.49 193.36 15 193 C15.47 189.39 14.84 187.1 13 184 C13.68 183.69 14.36 183.38 15.06 183.06 C15.7 182.38 16.34 181.7 17 181 C16.9 178.94 16.9 178.94 16.5 176.56 C15.83 172.27 15.83 172.27 17.5 169.62 C19.72 168.18 21.28 167.59 23.75 166.81 C25.59 166.11 25.59 166.11 27 165 C27.44 162.6 27.32 160.57 27.05 158.16 C26.99 155.62 27.53 154.99 29 153 C29.63 150.96 29.63 150.96 30.12 148.81 C30.29 148.1 30.46 147.38 30.63 146.64 C30.75 146.1 30.88 145.56 31 145 C31.66 145 32.32 145 33 145 C33.03 144.73 33.03 144.73 33.18 143.39 C34.16 135.2 34.16 135.2 35 133 C35.98 132.3 36.98 131.63 38 131 C38.39 131.53 38.77 132.06 39.17 132.61 C43.64 138.67 43.64 138.67 46.25 141.06 C49.39 144.54 49.86 148.77 50.38 153.31 C50.58 154.2 50.79 155.09 51 156 C51.62 156.31 52.24 156.62 52.88 156.94 C56.24 158.62 56.84 161.57 58 165 C58.27 165.78 58.54 166.57 58.81 167.38 C59.05 170.76 58.19 173.5 57.18 176.72 C57 179 57 179 58.41 181.27 C60.54 184.92 60.52 187.98 60.62 192.12 C60.68 193.54 60.73 194.96 60.79 196.38 C60.81 197.01 60.82 197.63 60.84 198.27 C61 200 61 200 62 203 C65.78 202.62 68.83 202.26 72.19 200.44 C74.85 199.08 76.1 198.67 79 199 C79.25 201.31 79.25 201.31 79 204 C77.29 205.66 77.29 205.66 75.06 207.06 C71.19 209.53 71.19 209.53 70.18 212.06 C70 214 70 214 71 216 C72.63 216.2 72.63 216.2 74.56 216.12 C75.7 216.08 76.83 216.04 78 216 C78.23 216.93 78.45 217.86 78.69 218.81 C80.22 222.54 81.53 223.17 85 225 C85 225.66 85 226.32 85 227 C85.46 227.14 85.46 227.14 87.81 227.88 C91 229 91 229 92.56 230.19 C94.82 231.46 96.6 230.65 99 230 C98.94 227.62 98.94 227.62 98 225 C94.75 223.94 94.75 223.94 92.84 223.51 C87.95 222.15 83.58 217.29 81 213 C80.44 209.81 80.44 209.81 81 207 C82.32 205.98 83.65 204.98 85 204 C85.75 200.81 85.75 200.81 86 198 C87.09 197.92 88.19 197.84 89.31 197.75 C91.98 197.36 92.82 197.17 94.88 195.31 C96.22 192.55 96.65 190.04 97 187 C97.7 187.03 98.4 187.07 99.12 187.11 C100.03 187.13 100.94 187.16 101.88 187.19 C102.78 187.22 103.68 187.26 104.62 187.29 C107 187 107 187 108.32 185.73 C109.62 182.42 108.97 179.34 108 176 C105.97 172.37 103.53 170.08 99.75 168.38 C97 167 97 167 96.12 164.81 C96.08 164.21 96.04 163.62 96 163 C100.58 162.16 105.08 161.75 109.73 161.48 C112 161 112 161 113.82 159.81 C115.53 157.19 115.05 155.43 114.62 152.38 C114.39 150.59 114.17 148.8 114 147 C114.33 146.67 114.66 146.34 115 146 C115.15 143.22 115.02 141.06 114.25 138.38 C114.17 137.59 114.08 136.81 114 136 C115.33 134.99 116.66 133.99 118 133 C118.63 131.27 119.02 129.55 119.42 127.76 C120 126 120 126 122.25 123.44 C122.83 122.63 123.41 121.83 124 121 C123.35 118.01 122.36 115.72 121 113 C120.71 109.15 120.78 106.67 122 103 C124 101 124 101 125.98 100.92 C128.03 101.17 130 101.52 132 102 C131.86 101.64 131.86 101.64 131.12 99.81 C130.75 98.88 130.38 97.96 130 97 C129.57 96.17 129.13 95.35 128.69 94.5 C128 92 128 92 129.25 89.62 C129.83 88.76 130.41 87.89 131 87 C131.33 85.84 131.62 84.67 131.88 83.5 C132.64 80.44 132.95 80.04 135.56 77.88 C138.13 75.64 138.36 73.54 138.61 70.21 C138.68 68.49 138.72 66.78 138.76 65.06 C138.99 62.11 139.26 60.38 141 58 C141.99 58 142.98 58 144 58 C145.42 60.92 146.44 63.92 147.52 66.98 C149.2 70.41 151.01 71.72 154 74 C155.26 76.15 155.26 76.15 156.12 78.38 C156.45 79.16 156.77 79.95 157.11 80.75 C157.64 82.09 158.17 83.44 158.7 84.78 C160.34 88.51 162.16 89.92 165.5 91.95 C168.28 93.9 169.47 95.95 171 99 C170.87 102.27 170.41 104.31 168.75 107.12 C168.5 107.74 168.25 108.36 168 109 C168.47 109.58 168.95 110.16 169.44 110.75 C171.58 113.84 170.93 115.8 170.32 119.39 C170.22 119.92 170.11 120.45 170 121 C170.99 121.16 170.99 121.16 176 122 C176.25 127.54 176.25 127.54 174.94 129.94 C173.07 134.05 174.92 138.79 176 143 C177.79 143.22 179.58 143.43 181.38 143.62 C182.37 143.74 183.37 143.86 184.4 143.98 C184.83 143.98 184.83 143.98 187 144 C187.66 143.34 188.32 142.68 189 142 C191.12 142.38 191.12 142.38 193 143 C192.39 149.44 192.39 149.44 190.81 151.69 C188.26 153.54 185.64 155.28 183 157 C182 158 182 158 181.9 160.07 C181.91 160.48 181.91 160.48 181.94 162.56 C181.95 163.39 181.96 164.22 181.96 165.07 C181.98 165.7 181.99 166.34 182 167 C182.31 166.95 182.31 166.95 183.9 166.71 C184.72 166.6 185.53 166.49 186.38 166.38 C187.19 166.26 188 166.14 188.84 166.02 C189.55 166.02 190.26 166.01 191 166 C193 168 193 168 193.19 170 C193.32 170.33 193.32 170.33 194 172 C195.74 172.49 197.48 172.98 199.24 173.38 C202.05 174.37 203.23 176.68 205 179 C208.73 181.71 212.38 183.44 217 184 C216.01 181.03 215.21 179.2 212.94 177 C210.6 174.59 210.08 173.34 210 170 C212.87 163.36 218.71 157.42 225 154 C226.38 152.56 226.38 152.56 227 151 C226.75 148.38 226.36 147.32 224.38 145.56 C223 144 223 144 222.88 141.62 C224.34 138.21 226.32 137.05 229.41 135.11 C231 134 231 134 232 132 C232.07 128.98 232 125.97 231.94 122.95 C231.99 120.39 232.29 118.43 233 116 C233.06 115.55 233.06 115.55 233.38 113.25 C234.59 106.93 236.52 101.99 240.91 97.23 C243.06 94.8 243.13 92.81 243.31 89.69 C243.75 85.29 245.04 83.32 248 80 C248.86 78.02 249.42 76.09 250 74 C253.92 75.31 254.84 76.97 256.95 80.41 C258.24 83.6 258.3 86.26 258.38 89.69 C258.59 95.54 258.59 95.54 260.5 97.7 C261.74 98.48 263 99.21 264.29 99.91 C267.3 101.83 267.88 104.77 269 108 C269.25 108.49 269.49 108.97 269.75 109.48 C272.52 115.11 272.15 119.98 271.71 126.12 C271.62 128.19 271.55 129.98 272 132 C274.51 133.51 274.51 133.51 277 134 C276.86 134.7 276.71 135.4 276.56 136.12 C276.38 137.07 276.19 138.02 276 139 C275.89 139.51 275.89 139.51 275.31 142.06 C275 145 275 145 275.5 147.38 C276 147.91 276.49 148.45 277 149 C278.62 148.93 280.24 148.86 281.86 148.76 C287.24 149.37 292.47 153.41 296.13 157.22 C296.75 157.81 297.36 158.39 298 159 C300.75 158.75 300.75 158.75 303 158 C301.85 155.53 300.95 153.95 299 152 C299.21 147.43 301.56 144.51 304.31 141.06 C305.1 140.05 305.89 139.05 306.68 138.04 C306.87 137.79 306.87 137.79 307.85 136.54 C309.04 134.94 310.08 133.3 311.13 131.61 C311.75 130.75 312.37 129.89 313 129 C315.56 129.25 315.56 129.25 318 130 C319.75 129.38 319.75 129.38 321 128 C322.68 123.61 321.85 119.21 320 115 C318.71 113.74 318.71 113.74 317.31 112.75 C316.55 112.17 315.79 111.59 315 111 C315.13 108.73 315.39 107.61 317 106 C318.74 105.84 320.47 105.68 322.21 105.57 C324.88 104.72 325.65 103.41 327 101 C327.33 98.38 327.33 98.38 327.25 95.56 C327.23 94.64 327.22 93.71 327.2 92.75 C327 90 327 90 326.3 87.4 C325.9 84.2 327.07 83.48 329 81 C329.22 78.52 329.22 78.52 329.06 75.81 C328.94 70.68 328.99 65.79 331 61 C333.44 58.81 333.44 58.81 336 58 C337.5 58.87 337.5 58.87 339 60 C342.32 59.68 343.61 59.39 346 57 C346.05 55.34 346.05 55.34 345.75 53.5 C345.66 52.89 345.57 52.28 345.48 51.66 C345 50 345 50 343 48 C342.55 41.68 343.98 37.5 347.93 32.72 C349.56 30.1 349.19 27.85 348.99 24.87 C349.01 21.93 350.15 20.2 352 18 C352.99 18 353.98 18 355 18 C355.04 18.27 355.04 18.27 355.23 19.62 C356.26 25.46 358.38 29.66 361.54 34.65 C364.51 39.43 367.13 44.24 366 50 C364.66 51.11 364.66 51.11 363.01 52.21 C361.24 53.63 360.17 54.49 359.44 56.64 C359.25 58.61 359.23 60.5 359.28 62.47 C359.27 63.22 359.27 63.96 359.26 64.73 C359.25 67.21 359.29 69.7 359.32 72.18 C359.32 73.97 359.32 75.75 359.32 77.53 C359.31 82.38 359.35 87.22 359.39 92.06 C359.43 97.12 359.43 102.18 359.44 107.23 C359.46 116.81 359.51 126.39 359.57 135.97 C359.63 146.88 359.67 157.79 359.7 168.69 C359.76 191.13 359.87 213.57 360 236 C363.83 236.05 367.65 236.09 371.48 236.11 C372.78 236.12 374.09 236.13 375.39 236.15 C377.26 236.18 379.13 236.19 381 236.2 C382.12 236.21 383.25 236.22 384.41 236.23 C384.84 236.19 384.84 236.19 387 236 C388.38 233.23 388.11 230.61 388.07 227.58 C388.06 226.92 388.06 226.26 388.05 225.58 C388.04 224.15 388.03 222.72 388.01 221.29 C387.99 219.02 387.98 216.76 387.97 214.49 C387.93 208.05 387.89 201.61 387.83 195.17 C387.79 191.23 387.77 187.29 387.75 183.36 C387.75 181.85 387.73 180.35 387.71 178.85 C387.69 176.75 387.68 174.65 387.68 172.55 C387.67 172.24 387.67 172.24 387.64 170.67 C387.65 168.16 387.82 166.32 389.04 164.11 C392.12 162.37 395.22 162.64 398.65 162.72 C399.04 162.72 399.04 162.72 401.01 162.74 C403.58 162.76 406.16 162.81 408.73 162.86 C410.52 162.88 412.32 162.9 414.11 162.92 C417.87 162.97 421.63 163.03 425.39 163.09 C430.2 163.17 435.01 163.24 439.82 163.29 C443.52 163.33 447.23 163.39 450.93 163.44 C452.7 163.47 454.47 163.49 456.24 163.51 C458.73 163.54 461.22 163.59 463.7 163.63 C464.43 163.64 465.15 163.65 465.9 163.65 C472.72 163.81 479.41 164.81 485 169 C485 169.66 485 170.32 485 171 C486.33 171.67 487.67 172.33 489 173 C494.82 178.96 494.74 185.94 494.71 193.81 C494.72 195.03 494.74 196.26 494.75 197.48 C494.79 200.67 494.8 203.86 494.81 207.05 C494.82 210.31 494.85 213.57 494.89 216.84 C494.95 223.23 494.99 229.61 495 236 C498.83 236.02 502.65 236.04 506.48 236.05 C507.78 236.06 509.09 236.07 510.39 236.08 C512.26 236.09 514.13 236.09 516 236.1 C517.12 236.1 518.25 236.11 519.41 236.11 C522 236 522 236 523 235 C523.1 233.15 523.14 231.3 523.15 229.45 C523.15 228.87 523.15 228.29 523.16 227.69 C523.16 225.76 523.17 223.84 523.17 221.91 C523.17 220.57 523.17 219.23 523.18 217.88 C523.18 215.06 523.19 212.24 523.19 209.41 C523.19 205.82 523.2 202.22 523.22 198.63 C523.23 195.85 523.23 193.07 523.23 190.29 C523.23 188.97 523.23 187.65 523.24 186.32 C523.32 170.9 520.96 157.61 510 146 C511.85 142.63 513.98 139.78 516.44 136.81 C525.8 124.92 526.32 109.78 524.69 95.25 C524.26 93.1 523.69 91.08 523 89 C522.77 88.22 522.53 87.44 522.29 86.63 C518.43 75.31 509.95 66.26 499.31 60.94 C491.01 56.91 483.76 54.87 474.56 54.43 C473.73 54.39 472.9 54.35 472.05 54.31 C461.9 53.85 451.74 53.88 441.58 53.9 C439.5 53.9 437.42 53.91 435.34 53.91 C429.93 53.91 424.53 53.92 419.12 53.93 C413.58 53.94 408.03 53.95 402.49 53.95 C391.66 53.96 380.83 53.98 370 54 C368.9 49.21 368.9 49.21 369.81 47.3 C370.2 46.83 370.6 46.36 371 45.88 C372.19 44.43 372.19 44.43 373 43 C372 40 372 40 370.5 38.69 C369 37 369 37 368.62 34 C368.52 33.5 368.52 33.5 368 31 C366.34 29.99 364.67 28.99 363 28 C360.44 22.96 359.24 18.11 358.31 12.56 C358.18 11.83 358.05 11.1 357.92 10.35 C357.61 8.57 357.3 6.78 357 5 C355.89 4.96 354.77 4.92 353.62 4.88 C353 4.85 352.37 4.83 351.73 4.8 C350 5 350 5 348 7 C347.66 9.24 347.66 9.24 347.5 11.88 C347.28 15.5 346.64 17.79 345 21 C344.76 23 344.76 23 344.69 25 C344.36 28.4 344.3 28.75 341.5 31.06 C340.68 31.7 339.85 32.34 339 33 C338.38 36.44 338.38 36.44 338.26 38.27 C338 40 338 40 336.25 42.62 C335.84 43.41 335.43 44.19 335 45 C336.41 48.28 338.37 50.62 341 53 C340.34 53.33 339.68 53.66 339 54 C338.55 53.67 338.09 53.34 337.62 53 C336 52 336 52 334.09 52.21 C330.12 53.71 328.29 57.6 326 61 C325.78 61.29 325.78 61.29 324.69 62.73 C321.6 67.23 321.85 70.75 322.64 76.06 C322.76 76.7 322.88 77.34 323 78 C322.5 78.16 322.5 78.16 320 79 C319.75 85.51 319.75 85.51 321 87.94 C322.54 91.11 322.51 94.53 322 98 C318.9 101.1 315.26 100.85 311 101 C308.6 100.82 306.37 100.45 304 100 C303.62 104.22 303.46 107.1 305.69 110.81 C308 113 308 113 310.5 114.5 C313.45 116.27 315.1 118.15 317 121 C316.67 121.66 316.34 122.32 316 123 C313.71 122.98 313.71 122.98 310.94 122.62 C310.02 122.51 309.1 122.4 308.15 122.29 C307.44 122.19 306.73 122.1 306 122 C306.02 122.46 306.02 122.46 306.12 124.81 C306 128 306 128 305.25 129.88 C303.52 131.44 302.26 131.08 300 131 C300.07 131.54 300.14 132.09 300.21 132.64 C300.38 134.89 300.44 136.79 300 139 C297.12 140.75 297.12 140.75 294 142 C292.62 144.19 292.62 144.19 292 146 C288.3 145.11 284.66 144.05 281 143 C282.09 140.74 283.2 138.7 284.62 136.62 C286.25 133.53 286.24 131.44 286 128 C285.72 128.03 285.72 128.03 284.32 128.18 C283.6 128.22 282.87 128.27 282.12 128.31 C281.77 128.34 281.77 128.34 279.95 128.49 C278 128 278 128 276.74 125.98 C275.8 122.21 275.86 118.8 276 114.94 C276.31 106.36 276.31 106.36 274 103 C273.48 102.53 272.97 102.05 272.44 101.56 C271 100 271 100 270.62 97.44 C270.42 96.63 270.21 95.83 270 95 C267.56 93.81 267.56 93.81 265 93 C261.98 89.98 262.64 86.22 262.61 82.14 C262.54 80.29 262.54 80.29 262 77 C260.03 75.33 260.03 75.33 258 74 C257.24 71.95 257.24 71.95 256.88 69.69 C256.19 65.96 255.28 62.56 254 59 C251.69 59.66 249.38 60.32 247 61 C247.1 61.93 247.21 62.86 247.31 63.81 C247.34 70.47 243.33 76.53 240.25 82.25 C239.14 84.69 238.84 85.94 238.62 88.5 C238.24 92.13 236.74 93.72 234.34 96.36 C227.96 104.2 226.73 115.2 227.25 124.94 C227.33 129.44 227.33 129.44 225.92 131.8 C223.18 134.37 220.87 135.27 217.12 135.31 C216.61 135.26 216.61 135.26 214 135 C213.39 140.23 213.39 140.23 215.08 142.37 C215.53 142.78 215.98 143.2 216.44 143.62 C218.92 145.92 219.64 146.75 220 150 C219.03 150.06 218.06 150.12 217.06 150.19 C216.56 150.32 216.56 150.32 214 151 C213.38 153.44 213.38 153.44 213 156 C212.36 156.31 211.72 156.62 211.06 156.94 C209 158 209 158 207.94 160.94 C207.63 161.95 207.32 162.96 207 164 C205.28 166.46 204.44 166.9 201.5 167.56 C200.68 167.38 199.85 167.19 199 167 C197.38 164.12 197.38 164.12 196 161 C194.31 159.62 194.31 159.62 193 159 C194.05 156.25 195.09 153.86 196.69 151.38 C199 146.94 197.87 141.73 197 137 C196 136 196 136 193.19 135.81 C190 136 190 136 187.94 137.06 C186 138 186 138 183.31 137.94 C182.55 137.63 181.79 137.32 181 137 C179.58 133.35 180.26 130.72 181 127 C181.15 125.27 181.25 123.54 181.31 121.81 C181.35 120.95 181.39 120.09 181.43 119.21 C181.29 118.48 181.14 117.75 181 117 C179.04 115.76 179.04 115.76 177 115 C176 114 176 114 175.89 112.39 C175.89 112.05 175.89 112.05 175.89 110.32 C175.76 100.86 175.63 93.35 169 86 C168.3 85.48 167.6 84.95 166.88 84.41 C164.46 82.6 163.96 80.81 163 78 C162.67 77.67 162.34 77.34 162 77 C161.96 75.87 161.92 74.73 161.88 73.56 C161.64 71.62 161.64 71.62 161 70 C157.69 69.06 157.69 69.06 155.79 68.72 C152.72 67.49 151.97 64.87 150.73 61.97 C149.06 57.44 148.72 53.49 148.48 48.69 C147.92 45.56 147.33 44.18 145 42 C141.81 41.25 141.81 41.25 139 41 C138.89 41.93 138.78 42.86 138.67 43.82 C137.25 55.08 137.25 55.08 135.38 58.88 C134.05 61.89 133.87 63.04 134 66.19 C134.11 68.95 134.08 69.85 132.75 72.38 C131 74 131 74 128.88 74.81 C128.26 75.2 127.64 75.6 127 76 C126.44 79.44 126.44 79.44 126.37 81.25 C126 83 126 83 124.53 84.46 C122.64 86.36 122.48 87.56 122.06 90.19 C121.43 93.48 120.59 96.02 118.94 98.94 C116.56 103.38 115.74 107.97 116 113 C116.63 114.35 117.29 115.69 118 117 C117.88 119.13 117.88 119.13 117 121 C116.32 121.29 115.64 121.58 114.94 121.88 C114.3 122.25 113.66 122.62 113 123 C112.81 126 112.81 126 113 129 C111.61 131.78 109.84 131.98 107 133 C107.16 133.52 107.16 133.52 108 136.12 C109.05 140.26 109.19 144.2 109.19 148.44 C109.19 149.06 109.19 149.69 109.19 150.34 C109.13 154.87 109.13 154.87 108 156 C101.71 157.01 95.36 157.14 89 157 C89.21 166.85 89.21 166.85 92.19 169.94 C95 172 95 172 98.12 173.56 C101.11 175.05 102.44 176.07 104 179 C103.67 179.99 103.34 180.98 103 182 C99.37 182 95.74 182 92 182 C91.86 183.3 91.71 184.6 91.56 185.94 C91.12 189.88 91.12 189.88 90 191 C88 191.13 86 191.23 84 191.31 C78.64 191.6 74.44 192.71 69.71 195.26 C69.14 195.5 68.58 195.75 68 196 C67.34 195.67 66.68 195.34 66 195 C65.93 192.86 65.95 190.82 66.06 188.69 C66.29 183.83 66.12 181.71 63 178 C63.27 174.91 63.95 172.16 64.81 169.19 C65.09 164.39 63.15 161.22 61 157 C60.34 155.67 59.68 154.34 59.02 153 C57.31 149.55 55.59 146.11 53.84 142.68 C53.17 141.35 52.55 140 51.95 138.64 C50.85 136.74 49.9 136.06 48 135 C45.21 133.44 44.16 131.99 43 129 C42.69 126.78 42.69 126.78 42.56 124.5 C42.2 120.86 41.95 118.44 39 116 C35.81 115.25 35.81 115.25 33 115 C32.95 115.83 32.9 116.66 32.85 117.52 C32.78 118.61 32.7 119.69 32.62 120.81 C32.56 121.89 32.49 122.97 32.41 124.08 C32.01 126.94 31.56 127.75 30 130 C29.59 132.48 29.59 132.48 29.38 135.19 C29.3 136.09 29.23 136.99 29.15 137.92 C29.1 138.61 29.05 139.29 29 140 C27.35 140.33 25.7 140.66 24 141 C23.99 141.3 23.99 141.3 23.96 142.79 C23.52 150.04 23.52 150.04 20.62 152.62 C20.4 152.81 20.4 152.81 19.26 153.76 C17.37 155.62 16.74 157.8 15.82 160.24 C14.92 162.17 13.85 163.48 12.44 165.06 C9.97 167.83 9.08 170.44 8 174 C7.49 174.61 6.98 175.23 6.45 175.86 C4.66 178.5 4.71 179.92 4.88 183.06 C5.02 186.2 5.01 187.97 4 191 C3.67 196.1 3.98 201 5 206 C4.17 206.33 4.17 206.33 0 208 C0 139.36 0 70.72 0 0 Z M742 54 C741.8 56.36 741.73 58.61 741.75 60.98 C741.74 61.72 741.74 62.46 741.74 63.22 C741.73 65.71 741.73 68.2 741.74 70.7 C741.74 72.48 741.73 74.26 741.73 76.04 C741.72 80.89 741.73 85.74 741.73 90.58 C741.74 95.65 741.73 100.71 741.73 105.78 C741.72 114.28 741.73 122.79 741.74 131.3 C741.75 141.14 741.75 150.99 741.74 160.84 C741.73 169.28 741.73 177.72 741.73 186.16 C741.73 191.2 741.73 196.25 741.73 201.3 C741.72 206.04 741.73 210.79 741.74 215.53 C741.74 217.28 741.74 219.02 741.73 220.77 C741.73 223.15 741.74 225.52 741.75 227.89 C741.74 228.59 741.74 229.29 741.73 230.01 C741.77 234.77 741.77 234.77 744 237 C746.04 237.25 746.04 237.25 748.6 237.25 C749.08 237.26 749.08 237.26 751.53 237.27 C752.6 237.27 753.67 237.26 754.76 237.26 C755.32 237.26 755.32 237.26 758.16 237.27 C761.24 237.28 764.32 237.27 767.4 237.27 C770.62 237.26 773.84 237.27 777.07 237.27 C782.49 237.28 787.91 237.27 793.33 237.26 C799.58 237.25 805.84 237.25 812.09 237.26 C817.47 237.27 822.84 237.27 828.21 237.27 C831.42 237.27 834.63 237.27 837.84 237.27 C841.42 237.28 845.01 237.27 848.59 237.26 C849.12 237.26 849.12 237.26 851.79 237.27 C857.28 237.24 861.81 236.79 867 235 C868.6 234.69 870.2 234.39 871.81 234.12 C884.07 231.66 894.26 225.8 901.5 215.44 C903.55 212.07 905.11 208.66 906.36 204.92 C907 203 907 203 908.02 201 C909.43 196.68 909.28 192.59 909.26 188.07 C909.26 187.08 909.27 186.08 909.27 185.06 C909.28 181.77 909.27 178.48 909.27 175.19 C909.27 172.9 909.27 170.62 909.27 168.33 C909.28 163.53 909.27 158.74 909.26 153.95 C909.25 148.41 909.25 142.88 909.26 137.35 C909.27 132.02 909.27 126.68 909.27 121.35 C909.27 119.09 909.27 116.82 909.27 114.56 C909.28 111.39 909.27 108.22 909.26 105.06 C909.26 104.59 909.26 104.59 909.27 102.23 C909.24 97.36 908.85 93.52 907 89 C906.74 88.21 906.48 87.42 906.21 86.61 C901.82 74.52 893.82 64.38 882.06 58.88 C879.29 57.7 876.5 56.62 873.66 55.61 C872 55 872 55 870 54 C857.8 52.21 845.21 52.85 832.93 52.87 C829.8 52.87 826.68 52.87 823.55 52.86 C818.32 52.86 813.08 52.86 807.85 52.87 C801.8 52.88 795.75 52.87 789.7 52.87 C784.49 52.86 779.27 52.86 774.06 52.87 C770.95 52.87 767.85 52.87 764.74 52.86 C761.29 52.86 757.84 52.87 754.39 52.87 C753.36 52.87 752.34 52.87 751.28 52.86 C750.34 52.87 749.41 52.87 748.44 52.87 C748.04 52.87 748.04 52.87 745.97 52.87 C744 53 744 53 742 54 Z M551 55 C550.9 57.31 550.87 59.59 550.87 61.9 C550.87 62.63 550.87 63.36 550.87 64.12 C550.86 66.58 550.87 69.05 550.87 71.51 C550.87 73.27 550.87 75.03 550.87 76.79 C550.86 81.59 550.86 86.39 550.87 91.18 C550.87 96.19 550.87 101.2 550.86 106.2 C550.86 114.62 550.86 123.03 550.87 131.44 C550.88 141.18 550.87 150.92 550.87 160.66 C550.86 169 550.86 177.35 550.87 185.7 C550.87 190.69 550.87 195.68 550.86 200.67 C550.86 205.36 550.86 210.05 550.87 214.75 C550.87 216.47 550.87 218.2 550.87 219.92 C550.86 222.27 550.87 224.62 550.87 226.97 C550.87 227.66 550.87 228.35 550.87 229.06 C550.89 233.77 550.89 233.77 552 236 C555.23 237.08 557.98 237.14 561.33 237.13 C561.98 237.14 562.62 237.14 563.29 237.14 C565.45 237.15 567.62 237.15 569.78 237.15 C571.33 237.15 572.88 237.15 574.43 237.16 C578.65 237.16 582.86 237.17 587.08 237.17 C590.59 237.17 594.11 237.17 597.63 237.18 C605.92 237.18 614.22 237.19 622.51 237.19 C631.07 237.18 639.64 237.2 648.2 237.21 C655.54 237.22 662.89 237.23 670.24 237.23 C674.63 237.23 679.02 237.23 683.41 237.24 C687.54 237.25 691.66 237.25 695.79 237.24 C697.31 237.24 698.82 237.25 700.34 237.25 C702.41 237.26 704.47 237.25 706.54 237.25 C707.14 237.25 707.74 237.26 708.36 237.26 C711.71 237.24 714.24 236.98 717 235 C717.39 232.62 717.51 230.69 717.46 228.31 C717.46 227.65 717.46 227 717.46 226.32 C717.45 224.93 717.44 223.53 717.41 222.14 C717.38 220.01 717.37 217.88 717.37 215.74 C717.36 214.39 717.35 213.04 717.34 211.69 C717.33 211.05 717.33 210.41 717.33 209.75 C717.23 205.23 717.23 205.23 715 203 C712.65 202.75 712.65 202.75 709.63 202.76 C709.07 202.76 709.07 202.76 706.18 202.75 C704.92 202.76 703.65 202.77 702.38 202.77 C701.05 202.77 699.72 202.77 698.39 202.77 C694.77 202.77 691.15 202.78 687.54 202.8 C683.76 202.81 679.98 202.81 676.2 202.81 C669.04 202.82 661.89 202.84 654.73 202.86 C646.58 202.88 638.43 202.89 630.29 202.9 C613.52 202.92 596.76 202.96 580 203 C580 189.47 580 175.94 580 162 C584.04 162.01 588.09 162.02 592.25 162.03 C605.59 162.06 618.92 162.09 632.26 162.1 C640.35 162.11 648.43 162.13 656.52 162.15 C663.57 162.17 670.62 162.18 677.67 162.19 C681.4 162.19 685.13 162.2 688.87 162.21 C692.38 162.23 695.89 162.23 699.4 162.23 C700.69 162.23 701.98 162.23 703.27 162.24 C705.03 162.25 706.79 162.24 708.55 162.24 C709.04 162.24 709.04 162.24 711.54 162.25 C714.05 162 715.21 161.77 717 160 C717.29 157.68 717.4 155.63 717.36 153.31 C717.36 152.65 717.36 152 717.36 151.32 C717.36 149.93 717.35 148.53 717.34 147.14 C717.31 145.01 717.32 142.88 717.32 140.74 C717.32 139.39 717.31 138.04 717.3 136.69 C717.3 136.37 717.3 136.37 717.3 134.75 C717.23 130.23 717.23 130.23 715 128 C712.65 127.75 712.65 127.75 709.63 127.76 C709.07 127.76 709.07 127.76 706.18 127.75 C704.92 127.76 703.65 127.77 702.38 127.77 C701.05 127.77 699.72 127.77 698.39 127.77 C694.77 127.77 691.15 127.78 687.54 127.8 C683.76 127.81 679.98 127.81 676.2 127.81 C669.04 127.82 661.89 127.84 654.73 127.86 C646.58 127.88 638.43 127.89 630.29 127.9 C613.52 127.92 596.76 127.96 580 128 C580 114.47 580 100.94 580 87 C582 87.01 582 87.01 592.15 87.03 C605.37 87.06 618.59 87.09 631.82 87.1 C639.84 87.11 647.85 87.13 655.87 87.15 C662.86 87.17 669.85 87.18 676.84 87.19 C680.54 87.19 684.24 87.2 687.95 87.21 C691.43 87.23 694.91 87.23 698.4 87.23 C699.67 87.23 700.95 87.23 702.23 87.24 C703.98 87.25 705.72 87.24 707.47 87.24 C708.45 87.24 709.42 87.24 710.43 87.25 C714.85 86.82 714.85 86.82 717 85 C717.37 82.53 717.47 80.49 717.39 78.02 C717.39 77.68 717.39 77.68 717.37 75.95 C717.35 73.76 717.3 71.57 717.25 69.38 C717.23 67.89 717.21 66.41 717.2 64.92 C717.15 61.28 717.08 57.64 717 54 C695.5 53.98 674.01 53.96 652.51 53.95 C642.53 53.94 632.55 53.94 622.57 53.92 C613.88 53.91 605.18 53.91 596.48 53.91 C591.88 53.9 587.27 53.9 582.66 53.89 C578.33 53.89 574 53.89 569.67 53.89 C568.07 53.89 566.48 53.88 564.89 53.88 C562.72 53.88 560.55 53.88 558.38 53.88 C558.06 53.88 558.06 53.88 556.45 53.87 C552.11 53.89 552.11 53.89 551 55 Z " fill="#AE0E10" transform="translate(0,0)"/>


<path d="M0 0 C1.65 1.61 3.27 3.22 4.88 4.88 C5.34 5.34 5.81 5.81 6.29 6.29 C7.73 7.74 9.15 9.21 10.56 10.69 C11.01 11.14 11.46 11.6 11.92 12.07 C13.14 13.39 13.14 13.39 14.88 15.88 C14.63 18.26 14.27 19.48 12.56 21.18 C12.01 21.56 11.46 21.93 10.89 22.31 C10.28 22.73 9.68 23.15 9.05 23.59 C8.42 24.01 7.78 24.44 7.12 24.88 C5.88 25.73 4.63 26.58 3.39 27.44 C2.79 27.84 2.19 28.25 1.57 28.67 C0.01 29.78 -1.44 30.95 -2.89 32.19 C-5.12 33.88 -5.12 33.88 -8.12 33.88 C-10.31 32 -10.31 32 -12.12 29.88 C-12.12 29.22 -12.12 28.56 -12.12 27.88 C-13.86 26.9 -13.86 26.9 -16.12 25.88 C-16.8 25.48 -17.48 25.09 -18.18 24.69 C-25.52 20.62 -32.92 19.14 -41.12 17.88 C-41.69 17.79 -42.26 17.7 -42.84 17.61 C-48.71 16.78 -54.52 16.7 -60.44 16.67 C-61.52 16.67 -62.61 16.66 -63.73 16.65 C-66.03 16.65 -68.33 16.64 -70.63 16.63 C-74.06 16.63 -77.49 16.59 -80.92 16.56 C-92.11 16.51 -103.14 16.83 -114.25 18.14 C-115.21 18.25 -116.18 18.36 -117.17 18.47 C-125.72 19.6 -133.31 22.55 -140.12 27.88 C-142.9 32.31 -142.65 36.81 -142.12 41.88 C-141.35 44.42 -140.34 46.49 -139.12 48.88 C-138.8 49.87 -138.46 50.86 -138.12 51.88 C-137.46 51.88 -136.81 51.88 -136.12 51.88 C-135.46 52.64 -134.81 53.4 -134.12 54.19 C-128.32 60.23 -118 60.71 -110.07 60.98 C-107.05 61.03 -104.03 61.06 -101.01 61.07 C-98.95 61.09 -96.9 61.11 -94.85 61.13 C-89.01 61.19 -83.18 61.24 -77.34 61.28 C-14.05 61.67 -14.05 61.67 2.88 75.88 C8.33 81.44 12.34 87.49 14.88 94.88 C15.23 95.84 15.58 96.8 15.95 97.79 C17.39 102.97 17.28 108.32 17.3 113.65 C17.31 115.48 17.36 117.3 17.41 119.12 C17.59 132.33 13.06 144.17 3.88 153.88 C-11.06 166.2 -28.4 166.36 -46.76 166.38 C-48.96 166.39 -51.17 166.4 -53.37 166.41 C-57.98 166.43 -62.59 166.43 -67.19 166.43 C-71.89 166.43 -76.58 166.45 -81.27 166.49 C-86.99 166.54 -92.7 166.56 -98.41 166.56 C-100.57 166.56 -102.73 166.58 -104.88 166.6 C-122.3 166.77 -140.4 164.77 -154.12 152.88 C-166.57 140.34 -166.57 140.34 -168.12 133.88 C-166.73 131.66 -166.73 131.66 -164.45 129.45 C-163.64 128.65 -162.83 127.86 -162 127.04 C-161.57 126.63 -161.14 126.23 -160.7 125.81 C-159.38 124.57 -158.09 123.3 -156.8 122.03 C-150.45 115.88 -150.45 115.88 -148.12 115.88 C-146.64 117.41 -146.64 117.41 -144.94 119.5 C-136.14 129.7 -126.57 134.63 -113.12 135.88 C-110.56 136 -108 136.02 -105.43 136.02 C-105.07 136.02 -105.07 136.02 -103.24 136.03 C-100.87 136.04 -98.51 136.04 -96.14 136.04 C-94.48 136.05 -92.81 136.05 -91.15 136.05 C-87.67 136.06 -84.19 136.06 -80.71 136.06 C-76.28 136.06 -71.85 136.07 -67.42 136.09 C-63.99 136.1 -60.55 136.1 -57.12 136.1 C-55.49 136.1 -53.86 136.11 -52.22 136.12 C-25.83 136.23 -25.83 136.23 -15.12 128.88 C-11.09 124.2 -9.85 120.63 -9.88 114.44 C-9.87 113.33 -9.86 112.21 -9.86 111.07 C-10.12 107.9 -10.7 105.7 -12.12 102.88 C-13.81 101.81 -13.81 101.81 -16.12 100.88 C-17.17 100.23 -18.21 99.59 -19.25 98.94 C-26.97 94.48 -36.04 92.74 -44.86 92.7 C-45.19 92.7 -45.19 92.7 -46.86 92.68 C-48.28 92.67 -49.7 92.66 -51.13 92.65 C-53.4 92.63 -55.67 92.61 -57.94 92.58 C-64.39 92.51 -70.84 92.45 -77.29 92.4 C-81.24 92.37 -85.19 92.32 -89.15 92.28 C-90.64 92.26 -92.13 92.25 -93.62 92.24 C-101.37 92.2 -109.01 91.91 -116.71 90.97 C-117.34 90.89 -117.98 90.81 -118.64 90.73 C-125.35 89.83 -131.71 88 -138.12 85.88 C-139.03 85.59 -139.93 85.3 -140.87 85.01 C-151.64 81.22 -159.59 73.77 -165.12 63.88 C-166.47 60.92 -167.38 58.03 -168.12 54.88 C-168.33 54.03 -168.53 53.19 -168.74 52.32 C-171.6 38.81 -171.35 23.58 -164.25 11.38 C-163.24 9.86 -162.2 8.35 -161.12 6.88 C-160.72 6.3 -160.32 5.73 -159.91 5.14 C-151.45 -5.94 -139.16 -9.4 -125.95 -11.2 C-27.32 -23.93 -27.32 -23.93 0 0 Z " fill="#AE0E10" transform="translate(1911.125,68.125)"/>

<path d="M0 0 C0.62 0 1.25 0 1.89 0.01 C2.55 0.01 3.2 0 3.88 0 C6.1 -0 8.32 0 10.54 0 C12.12 0 13.71 0 15.29 -0 C19.61 -0.01 23.92 -0 28.24 -0 C32.75 0 37.25 -0 41.76 -0 C49.33 -0 56.9 -0 64.47 0 C73.23 0.01 82 0.01 90.76 0 C98.27 -0 105.78 -0 113.29 -0 C117.79 0 122.28 0 126.77 -0 C130.99 -0.01 135.21 -0 139.44 0 C140.99 0 142.54 0 144.1 0 C146.21 -0 148.32 0 150.44 0.01 C151.06 0 151.68 0 152.32 0 C156.55 0.02 156.55 0.02 157.66 1.13 C157.79 3.2 157.85 5.22 157.86 7.29 C157.87 7.9 157.88 8.52 157.88 9.15 C157.89 10.45 157.9 11.76 157.9 13.06 C157.91 15.06 157.94 17.06 157.97 19.05 C157.98 20.32 157.99 21.58 157.99 22.85 C158 23.45 158.01 24.05 158.03 24.66 C158.02 26.35 158.02 26.35 157.66 29.13 C155.15 31.6 152.59 31.38 149.21 31.37 C148.08 31.38 146.95 31.38 145.78 31.38 C144.53 31.38 143.28 31.37 142.02 31.36 C140.7 31.36 139.38 31.36 138.06 31.36 C134.47 31.36 130.89 31.35 127.3 31.34 C123.55 31.32 119.8 31.32 116.06 31.32 C108.96 31.31 101.86 31.3 94.76 31.28 C86.68 31.26 78.6 31.24 70.53 31.23 C53.9 31.21 37.28 31.18 20.66 31.13 C20.66 45.65 20.66 60.17 20.66 75.13 C22.72 75.15 22.72 75.15 33.13 75.21 C46.69 75.29 60.25 75.38 73.81 75.47 C82.03 75.53 90.26 75.58 98.48 75.63 C105.65 75.67 112.81 75.72 119.98 75.77 C123.78 75.8 127.57 75.82 131.37 75.84 C134.94 75.86 138.51 75.89 142.08 75.91 C143.39 75.92 144.71 75.93 146.02 75.94 C147.81 75.95 149.59 75.96 151.38 75.98 C152.38 75.98 153.38 75.99 154.41 76 C156.66 76.13 156.66 76.13 157.66 77.13 C157.76 79.11 157.79 81.09 157.79 83.07 C157.8 83.66 157.8 84.25 157.8 84.86 C157.8 86.12 157.8 87.38 157.79 88.63 C157.79 90.56 157.79 92.48 157.8 94.41 C157.8 95.63 157.8 96.85 157.79 98.07 C157.79 99.18 157.79 100.3 157.79 101.44 C157.66 104.13 157.66 104.13 156.66 106.13 C154.47 106.37 154.47 106.37 151.51 106.36 C150.4 106.36 149.28 106.36 148.13 106.36 C146.88 106.35 145.63 106.34 144.39 106.33 C143.08 106.33 141.78 106.32 140.47 106.32 C137.65 106.31 134.83 106.3 132.02 106.28 C127.56 106.26 123.11 106.25 118.66 106.24 C108.4 106.21 98.13 106.17 87.87 106.12 C78.48 106.08 69.08 106.05 59.68 106.03 C55.26 106.02 50.83 106 46.4 105.97 C43.64 105.96 40.89 105.95 38.13 105.94 C36.86 105.94 35.58 105.93 34.3 105.92 C32.55 105.91 30.81 105.91 29.06 105.91 C28.09 105.9 27.11 105.9 26.11 105.89 C23.61 106.14 22.48 106.45 20.66 108.13 C20.29 109.92 20.29 109.92 20.29 112.11 C20.29 112.52 20.29 112.52 20.27 114.59 C20.28 115.47 20.29 116.35 20.3 117.26 C20.3 118.17 20.3 119.07 20.3 120 C20.3 121.92 20.31 123.83 20.33 125.75 C20.35 128.69 20.35 131.63 20.34 134.57 C20.35 136.43 20.35 138.28 20.36 140.14 C20.36 141.02 20.36 141.91 20.36 142.82 C20.36 143.23 20.36 143.23 20.39 145.29 C20.39 145.65 20.39 145.65 20.4 147.47 C20.49 148.02 20.57 148.57 20.66 149.13 C23.24 150.42 25.09 150.27 27.98 150.28 C29.11 150.29 30.24 150.29 31.4 150.3 C32.66 150.3 33.92 150.3 35.17 150.31 C36.49 150.31 37.81 150.32 39.13 150.33 C41.97 150.34 44.82 150.35 47.66 150.36 C52.15 150.38 56.64 150.4 61.13 150.43 C73.9 150.5 86.67 150.56 99.45 150.61 C106.5 150.64 113.55 150.67 120.6 150.72 C125.07 150.74 129.54 150.76 134.01 150.77 C136.78 150.78 139.55 150.8 142.33 150.82 C143.62 150.83 144.91 150.83 146.2 150.83 C147.96 150.83 149.71 150.85 151.47 150.86 C152.45 150.87 153.44 150.87 154.45 150.87 C155.18 150.96 155.91 151.05 156.66 151.13 C158.62 155.05 157.93 159.95 157.96 164.28 C157.97 166.13 158.02 167.97 158.06 169.81 C158.07 170.98 158.08 172.15 158.09 173.32 C158.1 174.39 158.12 175.45 158.13 176.55 C157.66 179.13 157.66 179.13 156.04 180.28 C153.05 181.35 150.32 181.39 147.19 181.34 C146.87 181.34 146.87 181.34 145.23 181.34 C143.06 181.33 140.89 181.31 138.72 181.28 C137.16 181.28 135.61 181.27 134.05 181.26 C129.83 181.24 125.61 181.2 121.38 181.17 C116.97 181.13 112.56 181.1 108.14 181.08 C100.73 181.03 93.32 180.97 85.91 180.91 C77.33 180.84 68.75 180.78 60.17 180.73 C51.05 180.67 41.93 180.61 32.81 180.54 C30.18 180.52 27.54 180.5 24.91 180.49 C20.78 180.46 16.64 180.43 12.51 180.39 C10.99 180.38 9.47 180.37 7.95 180.36 C5.89 180.34 3.82 180.33 1.75 180.31 C1.14 180.3 0.54 180.3 -0.09 180.3 C-4.22 180.25 -4.22 180.25 -5.34 179.13 C-5.44 176.83 -5.47 174.56 -5.47 172.26 C-5.47 171.54 -5.47 170.81 -5.47 170.06 C-5.47 167.61 -5.47 165.15 -5.47 162.7 C-5.47 160.94 -5.47 159.19 -5.47 157.44 C-5.48 152.67 -5.48 147.89 -5.47 143.12 C-5.47 138.14 -5.47 133.16 -5.47 128.17 C-5.48 119.8 -5.47 111.43 -5.47 103.06 C-5.46 93.37 -5.46 83.68 -5.47 73.99 C-5.48 65.68 -5.48 57.38 -5.47 49.08 C-5.47 44.11 -5.47 39.14 -5.47 34.17 C-5.48 29.51 -5.48 24.84 -5.47 20.17 C-5.47 18.45 -5.47 16.73 -5.47 15.01 C-5.47 12.68 -5.47 10.34 -5.47 8 C-5.47 7.32 -5.47 6.63 -5.47 5.92 C-5.45 0.64 -5.33 0.02 0 0 Z " fill="#AE0E10" transform="translate(1555.3382906913757,53.8662565946579)"/>
<path d="M0 0 C0.97 -0 1.93 -0 2.93 -0 C15.55 -0 28.06 0.31 40.62 1.56 C41.23 1.62 41.84 1.68 42.47 1.74 C61.29 3.62 74.67 8.1 87.35 22.75 C96.66 35.42 95.5 52.84 95.49 67.77 C95.49 69.64 95.5 71.51 95.5 73.38 C95.51 77.29 95.51 81.19 95.5 85.09 C95.5 90.05 95.51 95.01 95.54 99.97 C95.55 103.83 95.55 107.69 95.55 111.55 C95.55 113.38 95.56 115.2 95.57 117.03 C95.66 135.94 94.53 152.99 81.11 167.54 C77.83 170.46 74.1 172.3 70.19 174.25 C69.38 174.81 68.58 175.36 67.75 175.94 C63.78 177.97 59.57 178.55 55.19 179.25 C54.18 179.42 53.17 179.59 52.13 179.77 C47.58 180.41 43.06 180.4 38.48 180.4 C37.53 180.4 36.58 180.4 35.6 180.41 C32.48 180.41 29.36 180.42 26.24 180.42 C24.07 180.42 21.89 180.42 19.72 180.43 C15.17 180.43 10.61 180.44 6.06 180.44 C1.39 180.44 -3.28 180.44 -7.95 180.46 C-13.6 180.47 -19.25 180.48 -24.9 180.48 C-27.05 180.48 -29.2 180.48 -31.35 180.49 C-34.35 180.5 -37.36 180.5 -40.36 180.49 C-41.25 180.5 -42.13 180.5 -43.05 180.51 C-47.45 180.49 -50.79 180.24 -54.81 178.25 C-56.2 177.97 -57.6 177.72 -59 177.5 C-64.66 176.3 -69.08 173.49 -73.81 170.25 C-74.39 169.86 -74.97 169.47 -75.57 169.06 C-85.07 161.92 -89.85 149.59 -91.81 138.25 C-92.07 135.09 -92.1 131.96 -92.09 128.79 C-92.09 127.89 -92.1 126.99 -92.1 126.07 C-92.12 123.12 -92.12 120.18 -92.11 117.23 C-92.12 115.16 -92.12 113.1 -92.13 111.03 C-92.13 106.71 -92.13 102.39 -92.13 98.07 C-92.12 92.56 -92.14 87.05 -92.16 81.54 C-92.18 77.27 -92.18 73.01 -92.18 68.74 C-92.18 66.71 -92.18 64.68 -92.19 62.65 C-92.25 49.6 -92.07 37.65 -85.88 25.81 C-85.39 24.87 -84.91 23.92 -84.41 22.94 C-82.72 20.09 -81.03 17.72 -78.81 15.25 C-78.15 15.25 -77.49 15.25 -76.81 15.25 C-76.48 14.26 -76.15 13.27 -75.81 12.25 C-73.92 11.09 -72.12 10.13 -70.12 9.19 C-69.09 8.68 -68.05 8.17 -66.99 7.65 C-59.93 4.54 -53.31 3.54 -45.69 2.69 C-44.62 2.56 -43.56 2.44 -42.46 2.31 C-39.25 1.93 -36.03 1.59 -32.81 1.25 C-31.91 1.15 -31 1.05 -30.06 0.95 C-20.07 -0.04 -10.04 0.01 0 0 Z M-42.49 32.16 C-43.15 32.24 -43.82 32.32 -44.5 32.4 C-52.6 33.48 -57.41 36.14 -62.59 42.37 C-65.83 47.34 -66.11 51.74 -66.12 57.49 C-66.13 58.31 -66.14 59.13 -66.14 59.97 C-66.17 62.66 -66.18 65.36 -66.18 68.05 C-66.19 69.93 -66.2 71.81 -66.21 73.69 C-66.23 77.63 -66.24 81.57 -66.24 85.5 C-66.24 90.54 -66.28 95.57 -66.33 100.6 C-66.36 104.49 -66.36 108.37 -66.36 112.25 C-66.37 114.11 -66.38 115.96 -66.4 117.82 C-66.43 120.42 -66.42 123.02 -66.41 125.62 C-66.43 126.38 -66.44 127.13 -66.46 127.92 C-66.38 133.75 -64.47 137.72 -60.81 142.25 C-49.46 152.8 -33.32 151.4 -18.91 151.38 C-17.27 151.38 -15.63 151.38 -13.99 151.39 C-10.56 151.39 -7.13 151.39 -3.69 151.38 C0.68 151.37 5.04 151.38 9.41 151.38 C12.8 151.39 16.19 151.39 19.58 151.38 C21.19 151.38 22.8 151.38 24.41 151.39 C49.35 151.41 49.35 151.41 59.19 146.25 C59.89 145.95 60.59 145.64 61.31 145.33 C63.49 144.08 64.17 143.08 65.31 140.88 C65.47 140.58 65.47 140.58 66.26 139.1 C66.56 138.49 66.87 137.88 67.19 137.25 C67.53 136.72 67.87 136.18 68.23 135.63 C69.62 132.19 69.49 128.98 69.49 125.3 C69.5 124.91 69.5 124.91 69.52 122.89 C69.54 120.25 69.55 117.62 69.56 114.98 C69.57 113.15 69.58 111.31 69.59 109.48 C69.6 105.63 69.61 101.78 69.61 97.93 C69.62 93.01 69.66 88.09 69.7 83.17 C69.73 79.37 69.74 75.58 69.74 71.78 C69.74 69.97 69.76 68.16 69.78 66.34 C69.96 49.21 69.96 49.21 65.45 43.53 C65.04 43.11 64.62 42.69 64.19 42.25 C63.54 41.59 62.9 40.94 62.23 40.26 C48.89 30.74 32.6 30.93 16.75 30.98 C15.33 30.98 13.91 30.98 12.49 30.98 C9.55 30.98 6.61 30.98 3.66 30.99 C-0.06 31 -3.79 30.99 -7.51 30.98 C-10.43 30.97 -13.35 30.98 -16.27 30.98 C-17.64 30.98 -19.02 30.98 -20.39 30.98 C-27.82 30.96 -35.11 31.26 -42.49 32.16 Z " fill="#AE0E10" transform="translate(1235.8125,53.75)"/>

<path d="M0 0 C0.43 -0 0.43 -0 2.6 -0.03 C3.55 -0.03 4.5 -0.03 5.48 -0.04 C6.48 -0.05 7.47 -0.06 8.5 -0.06 C11.82 -0.09 15.14 -0.11 18.46 -0.12 C19.03 -0.12 19.03 -0.12 21.91 -0.14 C26.71 -0.16 31.51 -0.18 36.32 -0.19 C43.15 -0.2 49.98 -0.24 56.81 -0.29 C61.63 -0.33 66.46 -0.35 71.28 -0.36 C74.15 -0.36 77.01 -0.37 79.88 -0.41 C91.83 -0.53 103.25 -0.01 114.99 2.37 C115.95 2.57 116.91 2.76 117.9 2.96 C131.87 6.11 143.07 13.21 151.02 25.15 C158.63 37.24 159.68 52.33 156.9 66.15 C154.46 74.43 150.62 82.23 144.13 88.01 C143.02 89.15 143.02 89.15 142.27 91.59 C143.24 94.91 145.06 96.63 147.36 99.17 C159.15 113.27 156.31 135.17 156.21 152.3 C156.2 154.72 156.2 157.14 156.2 159.56 C156.2 162.46 156.19 165.35 156.19 168.24 C156.18 169.33 156.18 170.41 156.18 171.52 C156.18 172.51 156.17 173.5 156.16 174.52 C156.16 175.39 156.15 176.27 156.15 177.17 C156.02 179.15 156.02 179.15 155.02 180.15 C153.16 180.24 151.31 180.26 149.45 180.25 C148.33 180.25 147.2 180.25 146.04 180.24 C144.85 180.23 143.65 180.22 142.45 180.22 C141.25 180.21 140.05 180.21 138.85 180.2 C135.91 180.19 132.96 180.17 130.02 180.15 C129.03 177.2 128.92 175.42 128.98 172.35 C129 171.38 129.02 170.4 129.03 169.4 C129.05 168.34 129.07 167.29 129.1 166.2 C129.12 163.97 129.15 161.74 129.17 159.51 C129.22 155.99 129.26 152.47 129.34 148.95 C129.41 145.56 129.44 142.16 129.47 138.77 C129.5 137.72 129.53 136.68 129.56 135.61 C129.59 127.51 127.39 122.89 122.02 116.95 C113.2 109.42 105.17 107.98 93.79 108.04 C93 108.04 92.2 108.04 91.39 108.04 C88.8 108.04 86.21 108.05 83.61 108.06 C81.81 108.06 80 108.06 78.2 108.06 C73.46 108.06 68.72 108.07 63.99 108.09 C59.15 108.1 54.31 108.1 49.47 108.11 C39.98 108.12 30.5 108.13 21.02 108.15 C21.02 109.04 21.02 109.93 21.02 110.84 C21.04 119.19 21.06 127.53 21.07 135.87 C21.07 140.16 21.08 144.45 21.09 148.74 C21.1 152.88 21.11 157.02 21.11 161.15 C21.11 162.74 21.12 164.32 21.12 165.9 C21.13 168.11 21.13 170.31 21.13 172.52 C21.13 173.18 21.14 173.84 21.14 174.52 C21.13 179.04 21.13 179.04 20.02 180.15 C18.25 180.25 16.48 180.28 14.7 180.29 C13.63 180.29 12.55 180.29 11.45 180.29 C10.31 180.29 9.18 180.28 8.02 180.28 C7.45 180.28 7.45 180.28 4.59 180.29 C3.51 180.29 2.44 180.29 1.33 180.29 C0.34 180.29 -0.66 180.28 -1.68 180.28 C-3.98 180.15 -3.98 180.15 -4.98 179.15 C-5.08 176.85 -5.12 174.58 -5.11 172.28 C-5.11 171.56 -5.11 170.83 -5.11 170.08 C-5.12 167.63 -5.12 165.17 -5.11 162.72 C-5.11 160.96 -5.12 159.21 -5.12 157.46 C-5.12 152.69 -5.12 147.91 -5.12 143.14 C-5.11 138.16 -5.12 133.18 -5.12 128.19 C-5.12 119.82 -5.12 111.45 -5.11 103.08 C-5.11 93.39 -5.11 83.7 -5.12 74.01 C-5.12 65.7 -5.12 57.4 -5.12 49.1 C-5.12 44.13 -5.12 39.16 -5.12 34.19 C-5.12 29.53 -5.12 24.86 -5.11 20.19 C-5.11 18.47 -5.11 16.75 -5.12 15.03 C-5.12 12.7 -5.11 10.36 -5.11 8.02 C-5.11 7.34 -5.11 6.65 -5.12 5.94 C-5.1 0.89 -5.07 0.04 0 0 Z M21.02 30.15 C20.76 32.1 20.76 32.1 20.76 34.5 C20.75 35.39 20.75 36.29 20.74 37.22 C20.74 38.19 20.75 39.16 20.75 40.16 C20.75 41.15 20.75 42.15 20.75 43.17 C20.74 45.27 20.75 47.37 20.76 49.48 C20.77 52.71 20.76 55.94 20.74 59.17 C20.74 61.21 20.75 63.24 20.75 65.28 C20.75 66.26 20.74 67.23 20.74 68.23 C20.75 69.13 20.75 70.02 20.76 70.94 C20.76 71.73 20.76 72.52 20.76 73.34 C20.85 73.94 20.93 74.54 21.02 75.15 C24.01 76.65 27.08 76.32 30.37 76.33 C31.12 76.34 31.88 76.34 32.66 76.35 C35.18 76.37 37.7 76.38 40.22 76.39 C40.65 76.39 40.65 76.39 42.84 76.4 C47.42 76.43 52 76.44 56.58 76.45 C61.28 76.46 65.98 76.49 70.68 76.53 C74.32 76.56 77.95 76.57 81.59 76.57 C83.32 76.58 85.05 76.59 86.78 76.61 C101.66 76.76 115.41 75.62 127.02 65.15 C130.35 61.4 132.78 56.85 133.22 51.81 C132.79 46.19 129.07 41.3 125.26 37.31 C116.64 30.22 105.12 28 94.23 28.01 C93.46 28.01 92.69 28 91.9 28 C89.37 27.99 86.85 27.99 84.32 27.99 C82.56 27.98 80.8 27.98 79.04 27.98 C75.36 27.97 71.68 27.97 68 27.97 C63.27 27.97 58.55 27.96 53.82 27.94 C50.19 27.93 46.56 27.92 42.93 27.93 C41.19 27.92 39.45 27.92 37.71 27.91 C35.28 27.9 32.85 27.9 30.42 27.91 C29.69 27.91 28.97 27.9 28.22 27.89 C23.25 27.93 23.25 27.93 21.02 30.15 Z " fill="#AE0E10" transform="translate(1363.982925415039,53.846099853515625)"/>
<path d="M0 0 C0.62 0 1.23 0.01 1.87 0.01 C2.52 0.01 3.18 0.01 3.85 0 C6.05 -0 8.25 0 10.46 0.01 C12.03 0.01 13.61 0 15.18 -0 C19.47 -0.01 23.75 -0.01 28.04 -0 C32.51 0 36.99 -0 41.46 -0 C48.98 -0.01 56.5 -0 64.01 0.01 C72.72 0.02 81.42 0.01 90.12 0 C97.58 -0.01 105.04 -0.01 112.5 -0 C116.96 0 121.42 0 125.88 -0.01 C130.07 -0.01 134.27 -0.01 138.46 0 C140 0.01 141.54 0.01 143.09 0 C145.18 -0 147.28 0 149.38 0.01 C150 0.01 150.61 0 151.25 0 C152.94 0.02 152.94 0.02 155.56 0.27 C156.94 3.02 156.69 5.26 156.69 8.33 C156.69 8.93 156.69 9.52 156.69 10.13 C156.7 11.39 156.69 12.64 156.69 13.9 C156.68 15.83 156.69 17.75 156.7 19.68 C156.69 20.9 156.69 22.12 156.69 23.33 C156.69 24.45 156.69 25.56 156.69 26.71 C156.56 29.27 156.56 29.27 155.56 30.27 C153.8 30.38 152.04 30.41 150.28 30.43 C149.13 30.44 147.98 30.45 146.8 30.46 C145.52 30.46 144.24 30.47 142.96 30.47 C141.62 30.48 140.28 30.49 138.94 30.5 C135.29 30.53 131.64 30.55 128 30.57 C124.19 30.59 120.38 30.62 116.57 30.65 C109.35 30.7 102.13 30.74 94.91 30.78 C86.7 30.83 78.48 30.89 70.27 30.94 C53.37 31.06 36.46 31.16 19.56 31.27 C19.56 45.79 19.56 60.31 19.56 75.27 C23.67 75.29 27.79 75.31 32.03 75.33 C45.59 75.39 59.14 75.47 72.7 75.56 C80.93 75.61 89.15 75.65 97.38 75.69 C104.54 75.72 111.71 75.76 118.88 75.81 C122.67 75.84 126.47 75.86 130.27 75.87 C133.84 75.88 137.41 75.91 140.98 75.93 C142.29 75.94 143.6 75.95 144.92 75.95 C146.7 75.95 148.49 75.97 150.28 75.99 C151.28 75.99 152.28 76 153.31 76.01 C154.05 76.09 154.79 76.18 155.56 76.27 C156.91 78.96 156.69 81.07 156.69 84.08 C156.69 84.65 156.69 85.22 156.69 85.81 C156.7 87.01 156.69 88.21 156.69 89.42 C156.68 91.26 156.69 93.1 156.7 94.95 C156.69 96.12 156.69 97.29 156.69 98.45 C156.69 99.52 156.69 100.59 156.69 101.69 C156.56 104.27 156.56 104.27 155.56 106.27 C153.33 106.53 153.33 106.53 150.32 106.54 C149.75 106.54 149.75 106.54 146.88 106.57 C145.61 106.57 144.34 106.57 143.07 106.57 C141.74 106.58 140.41 106.59 139.08 106.6 C136.22 106.61 133.35 106.63 130.48 106.63 C125.95 106.65 121.42 106.67 116.9 106.7 C109.74 106.74 102.58 106.77 95.42 106.8 C82.59 106.85 69.76 106.91 56.93 106.99 C52.43 107.01 47.92 107.03 43.41 107.05 C40.61 107.06 37.82 107.07 35.02 107.08 C33.72 107.09 32.41 107.1 31.11 107.1 C29.34 107.1 27.57 107.11 25.8 107.12 C24.8 107.13 23.81 107.13 22.79 107.13 C20.56 107.27 20.56 107.27 19.56 108.27 C19.48 110.44 19.46 112.58 19.49 114.76 C19.5 115.44 19.5 116.12 19.51 116.81 C19.52 118.29 19.53 119.77 19.54 121.25 C19.57 123.58 19.58 125.92 19.59 128.25 C19.63 134.9 19.67 141.54 19.73 148.19 C19.77 152.25 19.79 156.31 19.8 160.37 C19.81 161.92 19.83 163.47 19.85 165.02 C19.87 167.18 19.88 169.35 19.88 171.52 C19.9 172.16 19.91 172.8 19.92 173.46 C19.91 176.22 19.82 177.9 18.19 180.17 C15.87 181.73 14.26 181.53 11.49 181.38 C10.51 181.33 9.53 181.28 8.52 181.22 C7.5 181.16 6.48 181.09 5.43 181.02 C4.41 180.96 3.38 180.91 2.32 180.86 C-5.28 180.43 -5.28 180.43 -6.44 179.27 C-6.54 176.98 -6.58 174.73 -6.57 172.44 C-6.58 171.72 -6.58 171 -6.58 170.25 C-6.59 167.81 -6.59 165.38 -6.59 162.94 C-6.59 161.2 -6.59 159.46 -6.6 157.72 C-6.61 152.97 -6.61 148.23 -6.61 143.49 C-6.61 139.54 -6.61 135.59 -6.62 131.64 C-6.62 122.32 -6.63 113 -6.63 103.68 C-6.63 94.05 -6.64 84.42 -6.65 74.79 C-6.67 66.54 -6.67 58.29 -6.67 50.03 C-6.67 45.1 -6.67 40.16 -6.68 35.23 C-6.69 30.59 -6.69 25.95 -6.69 21.31 C-6.68 19.6 -6.69 17.89 -6.69 16.19 C-6.7 13.87 -6.7 11.54 -6.69 9.22 C-6.69 8.54 -6.7 7.86 -6.7 7.15 C-6.66 1.65 -5.62 0.05 0 0 Z " fill="#AE0E10" transform="translate(959.4411988854408,53.732513189315796)"/>
<path d="M0 0 C2.61 -0.21 5.11 -0.28 7.73 -0.27 C8.13 -0.28 8.13 -0.28 10.18 -0.29 C12.88 -0.3 15.57 -0.3 18.27 -0.3 C20.15 -0.3 22.02 -0.31 23.9 -0.31 C27.84 -0.32 31.79 -0.32 35.73 -0.32 C40.76 -0.31 45.79 -0.33 50.82 -0.35 C54.7 -0.36 58.58 -0.37 62.46 -0.36 C64.32 -0.36 66.17 -0.37 68.02 -0.38 C94.29 -0.5 94.29 -0.5 102.62 6.48 C110.08 14.68 108.55 26.21 108.46 36.52 C108.46 38.42 108.46 40.32 108.46 42.23 C108.46 46.2 108.44 50.17 108.41 54.15 C108.38 59.24 108.37 64.33 108.37 69.42 C108.37 73.34 108.36 77.26 108.35 81.19 C108.34 83.07 108.34 84.94 108.33 86.82 C108.33 89.44 108.31 92.06 108.29 94.68 C108.29 95.45 108.29 96.22 108.29 97.02 C108.22 102.79 107.22 107.78 103 112 C91.09 118.89 77.98 118.29 64.68 118.23 C62.82 118.23 60.95 118.23 59.08 118.23 C55.19 118.23 51.3 118.22 47.41 118.21 C42.41 118.19 37.42 118.18 32.42 118.19 C28.58 118.19 24.73 118.18 20.89 118.17 C19.04 118.17 17.2 118.17 15.36 118.17 C12.79 118.16 10.23 118.16 7.67 118.15 C6.9 118.15 6.13 118.15 5.34 118.15 C0.11 118.11 0.11 118.11 -1 117 C-1.1 115.51 -1.13 114.02 -1.13 112.53 C-1.13 112.04 -1.13 112.04 -1.14 109.6 C-1.13 108.53 -1.13 107.46 -1.13 106.36 C-1.13 105.24 -1.13 104.12 -1.13 102.97 C-1.14 99.9 -1.14 96.82 -1.13 93.74 C-1.13 90.53 -1.13 87.31 -1.14 84.1 C-1.14 78.7 -1.14 73.3 -1.13 67.9 C-1.12 61.65 -1.13 55.41 -1.13 49.16 C-1.14 43.8 -1.14 38.44 -1.13 33.09 C-1.13 29.88 -1.13 26.68 -1.14 23.48 C-1.14 19.91 -1.13 16.34 -1.13 12.77 C-1.13 11.7 -1.13 10.63 -1.14 9.54 C-1.13 8.57 -1.13 7.6 -1.13 6.6 C-1.13 5.75 -1.13 4.91 -1.13 4.04 C-1 2 -1 2 0 0 Z " fill="#AE0E10" transform="translate(772,86)"/>
<path d="M0 0 C0.62 0 1.24 0 1.88 0.01 C2.53 0.01 3.18 0 3.86 0 C6.06 -0 8.27 0 10.47 0 C12.05 0 13.62 0 15.2 -0 C19.49 -0.01 23.78 -0 28.06 -0 C32.54 0 37.02 -0 41.5 -0 C49.02 -0 56.55 -0 64.07 0 C72.78 0.01 81.49 0.01 90.2 0 C97.66 -0 105.13 -0 112.59 -0 C117.05 0 121.52 0 125.98 -0 C130.18 -0.01 134.37 -0 138.57 0 C140.11 0 141.66 0 143.2 0 C145.3 -0 147.4 0 149.5 0.01 C150.12 0 150.74 0 151.38 0 C155.57 0.02 155.57 0.02 156.69 1.13 C156.85 3.22 156.95 5.27 157 7.36 C157.03 7.98 157.05 8.6 157.07 9.24 C157.13 11.22 157.19 13.21 157.25 15.2 C157.29 16.54 157.34 17.89 157.38 19.23 C157.49 22.53 157.59 25.83 157.69 29.13 C153.88 30.9 150.92 31.38 146.74 31.34 C146.16 31.34 145.59 31.34 145 31.34 C143.12 31.33 141.24 31.31 139.36 31.29 C138.05 31.29 136.74 31.28 135.43 31.28 C131.99 31.26 128.55 31.24 125.11 31.21 C119.59 31.17 114.08 31.14 108.56 31.12 C106.63 31.11 104.71 31.09 102.78 31.07 C101.61 31.06 100.43 31.06 99.25 31.05 C98.22 31.04 97.19 31.04 96.13 31.03 C93.69 31.13 93.69 31.13 91.69 32.13 C90.5 35.4 90.57 38.59 90.57 42.04 C90.57 42.33 90.57 42.33 90.57 43.81 C90.57 45.78 90.58 47.74 90.59 49.7 C90.59 51.11 90.59 52.51 90.59 53.92 C90.6 56.95 90.6 59.98 90.61 63.01 C90.63 67.79 90.63 72.58 90.64 77.36 C90.65 87.52 90.67 97.67 90.69 107.82 C90.71 118.79 90.73 129.76 90.74 140.73 C90.75 145.49 90.76 150.25 90.77 155.02 C90.78 157.97 90.78 160.92 90.78 163.88 C90.78 165.25 90.79 166.63 90.79 168 C90.8 169.87 90.8 171.74 90.8 173.61 C90.8 174.66 90.81 175.71 90.81 176.79 C90.69 179.13 90.69 179.13 89.69 180.13 C87.61 180.23 85.57 180.27 83.5 180.27 C82.88 180.27 82.26 180.27 81.63 180.27 C80.32 180.27 79.01 180.27 77.7 180.26 C75.7 180.26 73.69 180.26 71.68 180.27 C70.41 180.27 69.14 180.27 67.88 180.27 C67.27 180.27 66.67 180.27 66.04 180.27 C61.8 180.25 61.8 180.25 60.69 179.13 C60.58 177.24 60.55 175.34 60.54 173.44 C60.54 172.84 60.54 172.24 60.53 171.62 C60.52 169.59 60.52 167.57 60.51 165.54 C60.51 164.1 60.5 162.65 60.49 161.2 C60.48 158.08 60.47 154.96 60.46 151.83 C60.44 146.9 60.42 141.97 60.39 137.04 C60.32 123.01 60.26 108.99 60.21 94.96 C60.18 87.22 60.15 79.48 60.1 71.74 C60.08 66.83 60.06 61.92 60.05 57.01 C60.04 53.96 60.02 50.92 60 47.87 C59.99 46.45 59.99 45.03 59.99 43.61 C59.99 41.68 59.98 39.76 59.96 37.83 C59.96 36.75 59.95 35.66 59.95 34.55 C59.86 33.75 59.78 32.96 59.69 32.13 C57.02 30.8 54.99 31.02 52 31.04 C51.42 31.04 50.84 31.04 50.24 31.04 C48.98 31.04 47.72 31.05 46.46 31.06 C44.46 31.07 42.46 31.08 40.47 31.08 C35.51 31.1 30.55 31.12 25.59 31.14 C21.4 31.16 17.21 31.18 13.03 31.19 C11.06 31.2 9.09 31.21 7.12 31.22 C5.92 31.23 4.71 31.23 3.5 31.23 C2.45 31.24 1.4 31.24 0.31 31.25 C-2.31 31.13 -2.31 31.13 -5.31 30.13 C-5.76 28.43 -5.76 28.43 -5.86 26.23 C-5.9 25.43 -5.94 24.62 -5.98 23.8 C-6.01 22.94 -6.04 22.08 -6.06 21.2 C-6.1 20.33 -6.13 19.47 -6.17 18.58 C-6.37 12.76 -6.56 6.86 -5.31 1.13 C-3.76 -0.42 -2.09 0.01 0 0 Z " fill="#AE0E10" transform="translate(1962.3121175765991,53.8662565946579)"/>

<path d="M0 0 C0.72 -0.01 1.44 -0.01 2.17 -0.02 C4.55 -0.04 6.93 -0.04 9.31 -0.05 C10.98 -0.05 12.64 -0.06 14.3 -0.07 C17.8 -0.08 21.3 -0.08 24.79 -0.08 C29.24 -0.08 33.68 -0.11 38.12 -0.14 C41.56 -0.16 45 -0.17 48.45 -0.17 C50.08 -0.17 51.72 -0.18 53.35 -0.19 C68.45 -0.32 83.18 1.15 94.8 11.79 C97.67 15.17 98.68 17.75 99.36 22.1 C98.43 28.84 94 33.89 88.8 38.04 C85.7 40.1 82.49 41.29 78.92 42.29 C78.36 42.45 77.81 42.61 77.23 42.78 C72.36 44.11 67.92 44.57 62.88 44.53 C62.13 44.54 61.37 44.54 60.59 44.54 C58.11 44.54 55.63 44.53 53.15 44.52 C51.41 44.52 49.68 44.52 47.95 44.52 C44.33 44.52 40.72 44.51 37.1 44.5 C32.46 44.48 27.82 44.48 23.18 44.48 C19.61 44.48 16.04 44.47 12.47 44.46 C10.76 44.46 9.05 44.46 7.33 44.46 C4.95 44.46 2.57 44.45 0.18 44.44 C-0.17 44.44 -0.17 44.44 -1.97 44.44 C-6.85 44.41 -6.85 44.41 -9.08 43.29 C-9.38 41.63 -9.38 41.63 -9.45 39.45 C-9.46 39.04 -9.46 39.04 -9.54 36.98 C-9.56 36.09 -9.58 35.21 -9.6 34.29 C-9.61 33.84 -9.61 33.84 -9.68 31.56 C-9.73 29.64 -9.78 27.72 -9.82 25.81 C-9.89 22.87 -9.99 19.93 -10.08 16.99 C-10.13 15.13 -10.18 13.28 -10.22 11.42 C-10.25 10.54 -10.29 9.65 -10.32 8.74 C-10.33 7.93 -10.35 7.11 -10.36 6.27 C-10.38 5.54 -10.4 4.82 -10.42 4.08 C-10.08 2.29 -10.08 2.29 -9 1.06 C-6.06 -0.12 -3.12 -0 0 0 Z " fill="#AE0E10" transform="translate(398.0791015625,83.70947265625)"/>
</svg>
